<?xml version="1.0" encoding="UTF-8"?>
<svg xmlns="http://www.w3.org/2000/svg" version="1.1" width="100" height="100" viewBox="0 0 100 100"><rect x="0" y="0" width="100" height="100" fill="#ffffff"/><g transform="scale(4)"><g transform="translate(0,0)"><path fill-rule="evenodd" d="M8 0L8 4L9 4L9 5L8 5L8 7L9 7L9 6L10 6L10 9L11 9L11 8L12 8L12 9L13 9L13 10L15 10L15 11L14 11L14 12L13 12L13 11L12 11L12 12L11 12L11 13L9 13L9 12L10 12L10 11L11 11L11 10L9 10L9 9L7 9L7 8L4 8L4 9L3 9L3 10L4 10L4 13L3 13L3 12L2 12L2 11L1 11L1 13L0 13L0 14L2 14L2 15L4 15L4 17L5 17L5 14L4 14L4 13L8 13L8 14L11 14L11 16L12 16L12 17L13 17L13 18L15 18L15 19L14 19L14 20L13 20L13 19L12 19L12 20L9 20L9 19L11 19L11 18L9 18L9 16L10 16L10 15L8 15L8 16L6 16L6 17L8 17L8 18L9 18L9 19L8 19L8 21L12 21L12 22L11 22L11 23L10 23L10 22L9 22L9 23L8 23L8 25L9 25L9 23L10 23L10 24L12 24L12 25L14 25L14 23L16 23L16 24L15 24L15 25L16 25L16 24L18 24L18 25L20 25L20 24L21 24L21 23L20 23L20 22L19 22L19 21L21 21L21 16L20 16L20 15L21 15L21 14L23 14L23 13L22 13L22 12L23 12L23 10L24 10L24 9L25 9L25 8L21 8L21 9L20 9L20 8L19 8L19 10L18 10L18 9L14 9L14 7L15 7L15 8L16 8L16 7L17 7L17 2L16 2L16 4L14 4L14 5L16 5L16 7L15 7L15 6L14 6L14 7L13 7L13 6L12 6L12 7L11 7L11 3L10 3L10 2L9 2L9 0ZM14 0L14 1L11 1L11 2L12 2L12 5L13 5L13 2L15 2L15 1L17 1L17 0ZM12 7L12 8L13 8L13 7ZM0 8L0 10L2 10L2 8ZM4 9L4 10L7 10L7 11L5 11L5 12L8 12L8 10L7 10L7 9ZM21 9L21 10L19 10L19 11L18 11L18 12L19 12L19 13L17 13L17 10L16 10L16 13L17 13L17 15L18 15L18 16L19 16L19 15L20 15L20 13L21 13L21 12L22 12L22 9ZM12 12L12 13L11 13L11 14L12 14L12 13L13 13L13 14L15 14L15 13L13 13L13 12ZM24 12L24 13L25 13L25 12ZM6 14L6 15L7 15L7 14ZM12 15L12 16L13 16L13 15ZM14 15L14 17L15 17L15 18L16 18L16 15ZM22 15L22 16L24 16L24 17L22 17L22 18L24 18L24 17L25 17L25 16L24 16L24 15ZM0 16L0 17L2 17L2 16ZM17 17L17 20L20 20L20 17ZM18 18L18 19L19 19L19 18ZM15 19L15 21L13 21L13 20L12 20L12 21L13 21L13 22L16 22L16 23L19 23L19 22L17 22L17 21L16 21L16 19ZM22 19L22 20L24 20L24 21L22 21L22 22L23 22L23 23L22 23L22 25L25 25L25 24L24 24L24 22L25 22L25 19ZM12 23L12 24L13 24L13 23ZM0 0L0 7L7 7L7 0ZM1 1L1 6L6 6L6 1ZM2 2L2 5L5 5L5 2ZM18 0L18 7L25 7L25 0ZM19 1L19 6L24 6L24 1ZM20 2L20 5L23 5L23 2ZM0 18L0 25L7 25L7 18ZM1 19L1 24L6 24L6 19ZM2 20L2 23L5 23L5 20Z" fill="#000000"/></g></g></svg>
