<?xml version="1.0" encoding="UTF-8"?>
<svg xmlns="http://www.w3.org/2000/svg" version="1.1" width="100" height="100" viewBox="0 0 100 100"><rect x="0" y="0" width="100" height="100" fill="#ffffff"/><g transform="scale(4)"><g transform="translate(0,0)"><path fill-rule="evenodd" d="M8 0L8 4L9 4L9 5L8 5L8 7L9 7L9 6L10 6L10 9L11 9L11 8L12 8L12 9L13 9L13 10L15 10L15 11L14 11L14 12L13 12L13 11L12 11L12 12L11 12L11 13L10 13L10 16L6 16L6 15L7 15L7 14L6 14L6 15L5 15L5 16L3 16L3 15L2 15L2 16L0 16L0 17L2 17L2 16L3 16L3 17L8 17L8 18L10 18L10 22L9 22L9 23L8 23L8 25L10 25L10 24L12 24L12 25L14 25L14 23L15 23L15 25L16 25L16 24L18 24L18 23L20 23L20 24L19 24L19 25L22 25L22 24L23 24L23 25L25 25L25 24L24 24L24 22L25 22L25 19L22 19L22 20L24 20L24 21L21 21L21 16L20 16L20 15L21 15L21 14L23 14L23 13L22 13L22 12L23 12L23 10L24 10L24 9L25 9L25 8L21 8L21 9L20 9L20 8L19 8L19 9L20 9L20 10L18 10L18 11L17 11L17 13L16 13L16 12L15 12L15 11L16 11L16 10L17 10L17 9L16 9L16 8L15 8L15 9L14 9L14 7L15 7L15 6L14 6L14 7L13 7L13 6L12 6L12 7L11 7L11 3L10 3L10 2L9 2L9 0ZM13 0L13 1L11 1L11 2L12 2L12 5L13 5L13 2L15 2L15 4L14 4L14 5L16 5L16 7L17 7L17 5L16 5L16 3L17 3L17 2L15 2L15 1L14 1L14 0ZM16 0L16 1L17 1L17 0ZM12 7L12 8L13 8L13 7ZM0 8L0 10L2 10L2 8ZM4 8L4 9L3 9L3 10L4 10L4 11L7 11L7 10L5 10L5 9L7 9L7 8ZM21 9L21 12L20 12L20 11L18 11L18 12L20 12L20 13L19 13L19 14L18 14L18 15L17 15L17 16L19 16L19 15L20 15L20 13L21 13L21 12L22 12L22 9ZM8 10L8 12L10 12L10 11L11 11L11 10ZM1 11L1 13L0 13L0 14L2 14L2 12L3 12L3 14L5 14L5 13L7 13L7 12L3 12L3 11ZM12 12L12 13L11 13L11 14L12 14L12 13L13 13L13 14L15 14L15 13L13 13L13 12ZM24 12L24 13L25 13L25 12ZM8 13L8 15L9 15L9 13ZM12 15L12 16L11 16L11 17L10 17L10 18L11 18L11 20L12 20L12 21L11 21L11 22L12 22L12 21L13 21L13 22L15 22L15 21L16 21L16 23L17 23L17 21L16 21L16 20L15 20L15 21L13 21L13 20L14 20L14 19L16 19L16 18L13 18L13 17L12 17L12 16L13 16L13 15ZM14 15L14 17L16 17L16 15ZM22 15L22 16L24 16L24 17L22 17L22 18L24 18L24 17L25 17L25 16L24 16L24 15ZM17 17L17 20L20 20L20 17ZM18 18L18 19L19 19L19 18ZM8 19L8 21L9 21L9 19ZM12 19L12 20L13 20L13 19ZM20 21L20 23L21 23L21 24L22 24L22 23L21 23L21 21ZM9 23L9 24L10 24L10 23ZM12 23L12 24L13 24L13 23ZM0 0L0 7L7 7L7 0ZM1 1L1 6L6 6L6 1ZM2 2L2 5L5 5L5 2ZM18 0L18 7L25 7L25 0ZM19 1L19 6L24 6L24 1ZM20 2L20 5L23 5L23 2ZM0 18L0 25L7 25L7 18ZM1 19L1 24L6 24L6 19ZM2 20L2 23L5 23L5 20Z" fill="#000000"/></g></g></svg>
