<?xml version="1.0" encoding="UTF-8"?>
<svg xmlns="http://www.w3.org/2000/svg" version="1.1" width="100" height="100" viewBox="0 0 100 100"><rect x="0" y="0" width="100" height="100" fill="#ffffff"/><g transform="scale(4)"><g transform="translate(0,0)"><path fill-rule="evenodd" d="M9 0L9 1L11 1L11 2L9 2L9 3L8 3L8 5L9 5L9 6L8 6L8 7L9 7L9 9L8 9L8 8L5 8L5 10L3 10L3 9L2 9L2 8L0 8L0 10L1 10L1 9L2 9L2 13L1 13L1 11L0 11L0 17L1 17L1 14L2 14L2 15L3 15L3 16L2 16L2 17L5 17L5 16L6 16L6 17L8 17L8 20L9 20L9 21L10 21L10 22L9 22L9 23L8 23L8 25L10 25L10 24L11 24L11 25L14 25L14 23L16 23L16 22L14 22L14 21L12 21L12 19L14 19L14 20L15 20L15 21L17 21L17 22L19 22L19 24L18 24L18 23L17 23L17 24L16 24L16 25L20 25L20 22L19 22L19 21L22 21L22 19L21 19L21 17L22 17L22 18L24 18L24 19L25 19L25 18L24 18L24 17L25 17L25 14L23 14L23 13L25 13L25 10L24 10L24 9L23 9L23 12L22 12L22 11L21 11L21 9L22 9L22 8L20 8L20 9L18 9L18 10L17 10L17 12L18 12L18 14L20 14L20 11L21 11L21 12L22 12L22 13L21 13L21 14L22 14L22 15L21 15L21 16L19 16L19 15L17 15L17 16L16 16L16 18L12 18L12 19L11 19L11 15L10 15L10 14L11 14L11 12L12 12L12 11L13 11L13 10L11 10L11 8L10 8L10 7L11 7L11 4L12 4L12 5L13 5L13 6L12 6L12 9L13 9L13 8L14 8L14 10L15 10L15 11L14 11L14 12L13 12L13 13L12 13L12 14L13 14L13 15L12 15L12 17L13 17L13 16L14 16L14 17L15 17L15 15L16 15L16 14L17 14L17 13L16 13L16 12L15 12L15 11L16 11L16 7L17 7L17 1L16 1L16 0L13 0L13 1L12 1L12 0ZM13 1L13 2L12 2L12 4L14 4L14 5L15 5L15 7L14 7L14 6L13 6L13 7L14 7L14 8L15 8L15 7L16 7L16 5L15 5L15 4L14 4L14 3L16 3L16 1L15 1L15 2L14 2L14 1ZM9 3L9 5L10 5L10 3ZM9 6L9 7L10 7L10 6ZM6 9L6 10L5 10L5 12L4 12L4 11L3 11L3 13L2 13L2 14L3 14L3 15L4 15L4 16L5 16L5 15L6 15L6 16L7 16L7 15L6 15L6 14L7 14L7 13L8 13L8 12L10 12L10 11L11 11L11 10L10 10L10 9L9 9L9 10L10 10L10 11L6 11L6 10L8 10L8 9ZM18 10L18 12L19 12L19 10ZM5 12L5 13L7 13L7 12ZM3 13L3 14L4 14L4 13ZM8 14L8 15L9 15L9 17L10 17L10 15L9 15L9 14ZM23 15L23 16L22 16L22 17L24 17L24 15ZM17 17L17 20L20 20L20 17ZM9 18L9 20L10 20L10 21L11 21L11 22L10 22L10 23L11 23L11 24L12 24L12 23L13 23L13 22L12 22L12 21L11 21L11 19L10 19L10 18ZM18 18L18 19L19 19L19 18ZM24 20L24 21L23 21L23 22L22 22L22 23L21 23L21 24L22 24L22 25L23 25L23 24L22 24L22 23L23 23L23 22L24 22L24 25L25 25L25 20ZM0 0L0 7L7 7L7 0ZM1 1L1 6L6 6L6 1ZM2 2L2 5L5 5L5 2ZM18 0L18 7L25 7L25 0ZM19 1L19 6L24 6L24 1ZM20 2L20 5L23 5L23 2ZM0 18L0 25L7 25L7 18ZM1 19L1 24L6 24L6 19ZM2 20L2 23L5 23L5 20Z" fill="#000000"/></g></g></svg>
