<?xml version="1.0" encoding="UTF-8"?>
<svg xmlns="http://www.w3.org/2000/svg" version="1.1" width="100" height="100" viewBox="0 0 100 100"><rect x="0" y="0" width="100" height="100" fill="#ffffff"/><g transform="scale(4)"><g transform="translate(0,0)"><path fill-rule="evenodd" d="M10 0L10 1L8 1L8 3L9 3L9 4L8 4L8 8L6 8L6 9L7 9L7 10L5 10L5 9L4 9L4 8L3 8L3 9L4 9L4 10L1 10L1 9L2 9L2 8L0 8L0 10L1 10L1 11L7 11L7 12L2 12L2 13L1 13L1 12L0 12L0 13L1 13L1 14L0 14L0 15L1 15L1 16L0 16L0 17L2 17L2 16L3 16L3 17L4 17L4 15L5 15L5 16L6 16L6 17L7 17L7 16L8 16L8 19L9 19L9 21L8 21L8 22L10 22L10 23L8 23L8 25L9 25L9 24L10 24L10 25L11 25L11 22L12 22L12 21L10 21L10 19L9 19L9 18L11 18L11 19L12 19L12 20L13 20L13 18L14 18L14 20L15 20L15 18L16 18L16 21L14 21L14 22L17 22L17 21L19 21L19 22L20 22L20 24L21 24L21 23L23 23L23 21L25 21L25 16L24 16L24 15L25 15L25 12L24 12L24 11L25 11L25 9L24 9L24 8L22 8L22 9L21 9L21 8L18 8L18 9L21 9L21 11L20 11L20 12L18 12L18 11L17 11L17 8L16 8L16 11L17 11L17 14L16 14L16 15L15 15L15 12L14 12L14 11L15 11L15 10L14 10L14 9L15 9L15 8L14 8L14 7L15 7L15 6L16 6L16 7L17 7L17 5L16 5L16 4L17 4L17 3L16 3L16 2L17 2L17 1L15 1L15 4L14 4L14 3L12 3L12 7L11 7L11 4L10 4L10 3L9 3L9 2L11 2L11 0ZM13 1L13 2L14 2L14 1ZM13 4L13 7L12 7L12 8L13 8L13 9L14 9L14 8L13 8L13 7L14 7L14 6L15 6L15 5L14 5L14 4ZM9 5L9 8L8 8L8 10L9 10L9 11L8 11L8 12L7 12L7 13L3 13L3 14L1 14L1 15L3 15L3 14L7 14L7 13L8 13L8 15L9 15L9 13L10 13L10 14L11 14L11 13L10 13L10 12L9 12L9 11L11 11L11 8L10 8L10 5ZM9 9L9 10L10 10L10 9ZM23 9L23 10L22 10L22 11L21 11L21 12L23 12L23 13L20 13L20 15L19 15L19 16L21 16L21 17L24 17L24 16L23 16L23 15L24 15L24 14L23 14L23 13L24 13L24 12L23 12L23 10L24 10L24 9ZM8 12L8 13L9 13L9 12ZM12 12L12 16L11 16L11 15L10 15L10 16L9 16L9 17L11 17L11 18L12 18L12 16L14 16L14 17L15 17L15 15L13 15L13 13L14 13L14 12ZM18 13L18 14L19 14L19 13ZM21 14L21 15L22 15L22 14ZM6 15L6 16L7 16L7 15ZM17 15L17 16L18 16L18 15ZM17 17L17 20L20 20L20 17ZM18 18L18 19L19 19L19 18ZM22 18L22 19L21 19L21 21L20 21L20 22L21 22L21 21L22 21L22 19L23 19L23 18ZM24 22L24 23L25 23L25 22ZM14 23L14 24L15 24L15 25L17 25L17 23ZM18 23L18 24L19 24L19 23ZM12 24L12 25L13 25L13 24ZM23 24L23 25L25 25L25 24ZM0 0L0 7L7 7L7 0ZM1 1L1 6L6 6L6 1ZM2 2L2 5L5 5L5 2ZM18 0L18 7L25 7L25 0ZM19 1L19 6L24 6L24 1ZM20 2L20 5L23 5L23 2ZM0 18L0 25L7 25L7 18ZM1 19L1 24L6 24L6 19ZM2 20L2 23L5 23L5 20Z" fill="#000000"/></g></g></svg>
