<?xml version="1.0" encoding="UTF-8"?>
<svg xmlns="http://www.w3.org/2000/svg" version="1.1" width="100" height="100" viewBox="0 0 100 100"><rect x="0" y="0" width="100" height="100" fill="#ffffff"/><g transform="scale(4)"><g transform="translate(0,0)"><path fill-rule="evenodd" d="M9 0L9 1L8 1L8 2L9 2L9 3L8 3L8 4L10 4L10 7L11 7L11 4L12 4L12 5L13 5L13 6L12 6L12 9L13 9L13 8L14 8L14 9L15 9L15 11L14 11L14 12L15 12L15 13L12 13L12 11L13 11L13 10L11 10L11 11L10 11L10 9L11 9L11 8L6 8L6 9L9 9L9 10L6 10L6 11L8 11L8 12L9 12L9 13L7 13L7 12L5 12L5 14L3 14L3 13L2 13L2 17L3 17L3 15L4 15L4 17L8 17L8 19L9 19L9 20L8 20L8 25L11 25L11 24L10 24L10 23L9 23L9 22L11 22L11 21L12 21L12 22L13 22L13 23L12 23L12 25L13 25L13 24L14 24L14 25L16 25L16 24L17 24L17 25L18 25L18 24L19 24L19 23L20 23L20 24L21 24L21 25L25 25L25 20L24 20L24 21L22 21L22 20L21 20L21 18L22 18L22 19L25 19L25 18L24 18L24 17L25 17L25 14L23 14L23 13L22 13L22 15L24 15L24 17L22 17L22 16L20 16L20 15L21 15L21 14L20 14L20 13L21 13L21 12L20 12L20 11L21 11L21 10L23 10L23 12L24 12L24 13L25 13L25 10L24 10L24 8L23 8L23 9L22 9L22 8L21 8L21 10L20 10L20 8L19 8L19 10L18 10L18 8L17 8L17 5L14 5L14 4L12 4L12 2L14 2L14 0L13 0L13 1L11 1L11 2L10 2L10 0ZM15 0L15 3L16 3L16 4L17 4L17 3L16 3L16 2L17 2L17 0ZM10 3L10 4L11 4L11 3ZM8 5L8 7L9 7L9 5ZM13 6L13 7L14 7L14 8L16 8L16 9L17 9L17 8L16 8L16 6L15 6L15 7L14 7L14 6ZM0 8L0 17L1 17L1 9L5 9L5 8ZM4 10L4 11L3 11L3 12L4 12L4 11L5 11L5 10ZM16 10L16 11L15 11L15 12L17 12L17 10ZM19 10L19 11L18 11L18 12L19 12L19 11L20 11L20 10ZM10 12L10 13L9 13L9 14L10 14L10 13L11 13L11 18L13 18L13 19L12 19L12 21L15 21L15 22L17 22L17 21L15 21L15 20L16 20L16 18L15 18L15 17L16 17L16 16L15 16L15 15L14 15L14 16L13 16L13 17L12 17L12 15L13 15L13 14L12 14L12 13L11 13L11 12ZM6 13L6 14L5 14L5 15L6 15L6 16L7 16L7 15L8 15L8 17L9 17L9 18L10 18L10 17L9 17L9 15L8 15L8 14L7 14L7 13ZM15 13L15 14L16 14L16 15L20 15L20 14L19 14L19 13ZM6 14L6 15L7 15L7 14ZM14 16L14 17L15 17L15 16ZM17 17L17 20L20 20L20 17ZM18 18L18 19L19 19L19 18ZM14 19L14 20L15 20L15 19ZM19 21L19 22L18 22L18 23L17 23L17 24L18 24L18 23L19 23L19 22L20 22L20 23L21 23L21 24L24 24L24 22L23 22L23 23L22 23L22 22L20 22L20 21ZM14 23L14 24L16 24L16 23ZM0 0L0 7L7 7L7 0ZM1 1L1 6L6 6L6 1ZM2 2L2 5L5 5L5 2ZM18 0L18 7L25 7L25 0ZM19 1L19 6L24 6L24 1ZM20 2L20 5L23 5L23 2ZM0 18L0 25L7 25L7 18ZM1 19L1 24L6 24L6 19ZM2 20L2 23L5 23L5 20Z" fill="#000000"/></g></g></svg>
