<?xml version="1.0" encoding="UTF-8"?>
<svg xmlns="http://www.w3.org/2000/svg" version="1.1" width="100" height="100" viewBox="0 0 100 100"><rect x="0" y="0" width="100" height="100" fill="#ffffff"/><g transform="scale(4)"><g transform="translate(0,0)"><path fill-rule="evenodd" d="M8 0L8 1L10 1L10 0ZM13 0L13 2L11 2L11 4L10 4L10 3L9 3L9 2L8 2L8 5L9 5L9 6L8 6L8 7L9 7L9 8L8 8L8 9L9 9L9 10L10 10L10 9L9 9L9 8L10 8L10 7L11 7L11 8L12 8L12 7L13 7L13 9L15 9L15 10L14 10L14 11L11 11L11 13L10 13L10 12L9 12L9 11L8 11L8 12L9 12L9 13L8 13L8 14L6 14L6 13L7 13L7 12L6 12L6 13L4 13L4 12L5 12L5 11L4 11L4 10L5 10L5 9L4 9L4 8L0 8L0 10L1 10L1 11L4 11L4 12L3 12L3 15L2 15L2 14L1 14L1 15L0 15L0 16L1 16L1 15L2 15L2 17L5 17L5 16L6 16L6 17L8 17L8 18L9 18L9 17L10 17L10 16L11 16L11 17L12 17L12 18L11 18L11 19L9 19L9 20L10 20L10 22L9 22L9 21L8 21L8 25L10 25L10 24L11 24L11 23L14 23L14 22L15 22L15 21L14 21L14 20L13 20L13 18L14 18L14 17L12 17L12 16L14 16L14 15L15 15L15 17L16 17L16 19L15 19L15 20L16 20L16 22L18 22L18 23L16 23L16 24L18 24L18 25L19 25L19 24L23 24L23 25L25 25L25 24L23 24L23 23L24 23L24 22L25 22L25 21L23 21L23 20L25 20L25 17L24 17L24 16L25 16L25 15L24 15L24 14L25 14L25 12L24 12L24 11L22 11L22 10L24 10L24 9L25 9L25 8L24 8L24 9L23 9L23 8L20 8L20 9L19 9L19 10L20 10L20 11L21 11L21 12L20 12L20 13L19 13L19 11L18 11L18 12L17 12L17 9L18 9L18 8L17 8L17 6L16 6L16 7L15 7L15 5L16 5L16 4L17 4L17 3L15 3L15 2L14 2L14 0ZM16 0L16 1L17 1L17 0ZM12 3L12 5L10 5L10 6L9 6L9 7L10 7L10 6L11 6L11 7L12 7L12 5L13 5L13 7L14 7L14 5L13 5L13 4L15 4L15 3ZM6 8L6 9L7 9L7 8ZM1 9L1 10L2 10L2 9ZM3 9L3 10L4 10L4 9ZM20 9L20 10L21 10L21 9ZM6 10L6 11L7 11L7 10ZM15 10L15 11L16 11L16 10ZM0 12L0 13L2 13L2 12ZM12 12L12 14L10 14L10 13L9 13L9 14L10 14L10 15L11 15L11 16L12 16L12 14L13 14L13 15L14 15L14 14L15 14L15 15L16 15L16 16L17 16L17 15L18 15L18 14L17 14L17 15L16 15L16 14L15 14L15 13L17 13L17 12ZM21 12L21 13L24 13L24 12ZM13 13L13 14L14 14L14 13ZM4 14L4 15L3 15L3 16L5 16L5 15L6 15L6 16L7 16L7 15L6 15L6 14ZM22 14L22 15L19 15L19 16L21 16L21 19L22 19L22 20L21 20L21 23L23 23L23 22L22 22L22 20L23 20L23 19L22 19L22 18L23 18L23 16L24 16L24 15L23 15L23 14ZM8 15L8 17L9 17L9 15ZM17 17L17 20L20 20L20 17ZM18 18L18 19L19 19L19 18ZM11 19L11 20L12 20L12 19ZM11 21L11 22L12 22L12 21ZM19 21L19 22L20 22L20 21ZM9 23L9 24L10 24L10 23ZM18 23L18 24L19 24L19 23ZM12 24L12 25L13 25L13 24ZM14 24L14 25L15 25L15 24ZM0 0L0 7L7 7L7 0ZM1 1L1 6L6 6L6 1ZM2 2L2 5L5 5L5 2ZM18 0L18 7L25 7L25 0ZM19 1L19 6L24 6L24 1ZM20 2L20 5L23 5L23 2ZM0 18L0 25L7 25L7 18ZM1 19L1 24L6 24L6 19ZM2 20L2 23L5 23L5 20Z" fill="#000000"/></g></g></svg>
