<?xml version="1.0" encoding="UTF-8"?>
<svg xmlns="http://www.w3.org/2000/svg" version="1.1" width="100" height="100" viewBox="0 0 100 100"><rect x="0" y="0" width="100" height="100" fill="#ffffff"/><g transform="scale(4)"><g transform="translate(0,0)"><path fill-rule="evenodd" d="M9 0L9 1L8 1L8 2L9 2L9 3L8 3L8 4L10 4L10 7L11 7L11 4L12 4L12 5L13 5L13 6L12 6L12 9L13 9L13 8L14 8L14 9L15 9L15 11L14 11L14 12L15 12L15 13L12 13L12 11L13 11L13 10L11 10L11 11L10 11L10 9L11 9L11 8L6 8L6 9L9 9L9 10L6 10L6 11L8 11L8 12L6 12L6 13L5 13L5 12L4 12L4 13L3 13L3 11L5 11L5 8L0 8L0 10L1 10L1 11L2 11L2 13L0 13L0 17L1 17L1 14L2 14L2 15L4 15L4 13L5 13L5 16L4 16L4 17L7 17L7 16L8 16L8 19L10 19L10 18L11 18L11 21L10 21L10 20L8 20L8 25L10 25L10 23L11 23L11 21L12 21L12 22L13 22L13 23L12 23L12 25L13 25L13 24L14 24L14 25L16 25L16 24L17 24L17 25L18 25L18 24L19 24L19 23L20 23L20 24L21 24L21 25L25 25L25 20L24 20L24 21L22 21L22 20L21 20L21 18L22 18L22 19L25 19L25 18L24 18L24 17L25 17L25 14L23 14L23 13L22 13L22 15L24 15L24 17L22 17L22 16L20 16L20 14L19 14L19 13L21 13L21 12L17 12L17 11L19 11L19 10L20 10L20 11L21 11L21 10L23 10L23 12L24 12L24 13L25 13L25 10L24 10L24 8L23 8L23 9L22 9L22 8L21 8L21 10L20 10L20 8L19 8L19 10L17 10L17 9L18 9L18 8L16 8L16 7L17 7L17 4L15 4L15 5L14 5L14 4L12 4L12 2L15 2L15 3L17 3L17 1L15 1L15 0L14 0L14 1L11 1L11 2L10 2L10 0ZM10 3L10 4L11 4L11 3ZM8 5L8 7L9 7L9 5ZM13 6L13 7L14 7L14 8L15 8L15 7L16 7L16 6L15 6L15 7L14 7L14 6ZM1 9L1 10L2 10L2 9ZM16 10L16 11L17 11L17 10ZM8 12L8 14L7 14L7 13L6 13L6 14L7 14L7 15L6 15L6 16L7 16L7 15L8 15L8 14L9 14L9 15L10 15L10 16L9 16L9 18L10 18L10 17L11 17L11 18L13 18L13 19L12 19L12 21L15 21L15 22L17 22L17 24L18 24L18 23L19 23L19 22L20 22L20 23L21 23L21 24L24 24L24 22L23 22L23 23L22 23L22 22L20 22L20 21L19 21L19 22L17 22L17 21L15 21L15 20L16 20L16 19L15 19L15 18L16 18L16 17L14 17L14 16L15 16L15 15L14 15L14 16L13 16L13 17L12 17L12 15L13 15L13 14L12 14L12 13L11 13L11 12L10 12L10 13L9 13L9 12ZM10 13L10 14L11 14L11 13ZM15 13L15 14L16 14L16 16L18 16L18 15L17 15L17 14L18 14L18 13ZM17 17L17 20L20 20L20 17ZM18 18L18 19L19 19L19 18ZM14 19L14 20L15 20L15 19ZM9 22L9 23L10 23L10 22ZM14 23L14 24L16 24L16 23ZM0 0L0 7L7 7L7 0ZM1 1L1 6L6 6L6 1ZM2 2L2 5L5 5L5 2ZM18 0L18 7L25 7L25 0ZM19 1L19 6L24 6L24 1ZM20 2L20 5L23 5L23 2ZM0 18L0 25L7 25L7 18ZM1 19L1 24L6 24L6 19ZM2 20L2 23L5 23L5 20Z" fill="#000000"/></g></g></svg>
