<?xml version="1.0" encoding="UTF-8"?>
<svg xmlns="http://www.w3.org/2000/svg" version="1.1" width="100" height="100" viewBox="0 0 100 100"><rect x="0" y="0" width="100" height="100" fill="#ffffff"/><g transform="scale(4)"><g transform="translate(0,0)"><path fill-rule="evenodd" d="M9 0L9 1L8 1L8 2L9 2L9 3L8 3L8 4L10 4L10 7L11 7L11 4L12 4L12 5L13 5L13 6L12 6L12 9L13 9L13 8L14 8L14 9L15 9L15 11L14 11L14 12L15 12L15 13L12 13L12 11L13 11L13 10L11 10L11 11L10 11L10 9L11 9L11 8L6 8L6 9L5 9L5 8L0 8L0 9L2 9L2 10L3 10L3 11L4 11L4 13L3 13L3 12L2 12L2 11L1 11L1 10L0 10L0 12L1 12L1 13L0 13L0 17L1 17L1 13L2 13L2 15L4 15L4 14L6 14L6 15L5 15L5 17L8 17L8 19L9 19L9 18L10 18L10 17L11 17L11 15L10 15L10 14L11 14L11 13L12 13L12 14L13 14L13 15L12 15L12 17L13 17L13 16L14 16L14 17L15 17L15 16L16 16L16 20L15 20L15 19L14 19L14 20L15 20L15 21L12 21L12 19L13 19L13 18L11 18L11 20L8 20L8 25L10 25L10 23L11 23L11 21L12 21L12 22L13 22L13 23L12 23L12 25L13 25L13 24L14 24L14 25L15 25L15 24L16 24L16 23L15 23L15 21L16 21L16 22L19 22L19 23L18 23L18 24L17 24L17 25L18 25L18 24L19 24L19 23L20 23L20 24L21 24L21 25L22 25L22 24L21 24L21 23L22 23L22 22L24 22L24 24L23 24L23 25L25 25L25 20L24 20L24 21L22 21L22 20L21 20L21 18L22 18L22 19L25 19L25 18L24 18L24 17L25 17L25 14L23 14L23 13L22 13L22 15L24 15L24 17L22 17L22 16L21 16L21 14L20 14L20 13L21 13L21 12L19 12L19 10L18 10L18 8L17 8L17 6L16 6L16 5L17 5L17 4L16 4L16 3L17 3L17 2L16 2L16 1L17 1L17 0L16 0L16 1L15 1L15 0L14 0L14 3L15 3L15 5L14 5L14 4L12 4L12 2L13 2L13 1L11 1L11 2L10 2L10 0ZM15 2L15 3L16 3L16 2ZM10 3L10 4L11 4L11 3ZM8 5L8 7L9 7L9 5ZM13 6L13 7L14 7L14 8L16 8L16 9L17 9L17 8L16 8L16 6L15 6L15 7L14 7L14 6ZM19 8L19 9L20 9L20 8ZM21 8L21 10L20 10L20 11L21 11L21 10L23 10L23 12L24 12L24 13L25 13L25 10L24 10L24 8L23 8L23 9L22 9L22 8ZM4 9L4 10L5 10L5 9ZM6 9L6 10L7 10L7 11L6 11L6 12L5 12L5 13L6 13L6 14L8 14L8 15L9 15L9 16L8 16L8 17L10 17L10 15L9 15L9 14L8 14L8 13L9 13L9 10L8 10L8 9ZM16 10L16 11L15 11L15 12L16 12L16 13L17 13L17 14L16 14L16 16L17 16L17 15L19 15L19 16L20 16L20 15L19 15L19 13L17 13L17 12L18 12L18 10ZM7 11L7 12L6 12L6 13L8 13L8 11ZM16 11L16 12L17 12L17 11ZM10 12L10 13L11 13L11 12ZM6 15L6 16L7 16L7 15ZM14 15L14 16L15 16L15 15ZM17 17L17 20L20 20L20 17ZM18 18L18 19L19 19L19 18ZM9 21L9 22L10 22L10 21ZM19 21L19 22L20 22L20 23L21 23L21 22L22 22L22 21ZM14 23L14 24L15 24L15 23ZM0 0L0 7L7 7L7 0ZM1 1L1 6L6 6L6 1ZM2 2L2 5L5 5L5 2ZM18 0L18 7L25 7L25 0ZM19 1L19 6L24 6L24 1ZM20 2L20 5L23 5L23 2ZM0 18L0 25L7 25L7 18ZM1 19L1 24L6 24L6 19ZM2 20L2 23L5 23L5 20Z" fill="#000000"/></g></g></svg>
