<?xml version="1.0" encoding="UTF-8"?>
<svg xmlns="http://www.w3.org/2000/svg" version="1.1" width="100" height="100" viewBox="0 0 100 100"><rect x="0" y="0" width="100" height="100" fill="#ffffff"/><g transform="scale(4)"><g transform="translate(0,0)"><path fill-rule="evenodd" d="M8 0L8 1L10 1L10 0ZM14 0L14 2L11 2L11 4L10 4L10 3L9 3L9 2L8 2L8 5L9 5L9 6L8 6L8 7L9 7L9 8L8 8L8 9L9 9L9 10L6 10L6 9L7 9L7 8L6 8L6 9L4 9L4 8L0 8L0 9L4 9L4 10L3 10L3 11L4 11L4 12L5 12L5 13L4 13L4 14L1 14L1 15L0 15L0 16L1 16L1 15L3 15L3 17L4 17L4 15L5 15L5 16L6 16L6 17L8 17L8 18L9 18L9 19L12 19L12 20L10 20L10 21L8 21L8 25L11 25L11 24L10 24L10 21L12 21L12 22L11 22L11 23L14 23L14 22L16 22L16 23L15 23L15 24L14 24L14 25L16 25L16 23L17 23L17 22L19 22L19 24L18 24L18 25L19 25L19 24L23 24L23 25L25 25L25 24L23 24L23 23L24 23L24 22L25 22L25 21L23 21L23 20L25 20L25 17L24 17L24 16L25 16L25 15L24 15L24 14L25 14L25 12L24 12L24 11L22 11L22 10L24 10L24 9L25 9L25 8L24 8L24 9L23 9L23 8L20 8L20 9L18 9L18 8L17 8L17 6L16 6L16 7L15 7L15 4L16 4L16 5L17 5L17 1L16 1L16 2L15 2L15 0ZM12 3L12 5L10 5L10 6L9 6L9 7L10 7L10 8L9 8L9 9L10 9L10 10L9 10L9 12L8 12L8 11L6 11L6 10L5 10L5 12L7 12L7 13L5 13L5 14L7 14L7 15L6 15L6 16L7 16L7 15L9 15L9 18L10 18L10 17L11 17L11 18L12 18L12 17L14 17L14 18L13 18L13 20L14 20L14 21L16 21L16 22L17 22L17 21L16 21L16 20L15 20L15 17L16 17L16 16L20 16L20 15L21 15L21 19L22 19L22 20L21 20L21 21L20 21L20 22L21 22L21 23L23 23L23 22L22 22L22 20L23 20L23 19L22 19L22 18L23 18L23 16L24 16L24 15L23 15L23 14L22 14L22 15L21 15L21 14L18 14L18 13L17 13L17 14L16 14L16 11L18 11L18 12L19 12L19 13L24 13L24 12L19 12L19 10L18 10L18 9L17 9L17 10L15 10L15 9L16 9L16 8L15 8L15 9L13 9L13 7L14 7L14 5L13 5L13 4L15 4L15 3ZM12 5L12 7L11 7L11 6L10 6L10 7L11 7L11 8L12 8L12 7L13 7L13 5ZM20 9L20 10L21 10L21 9ZM1 10L1 11L0 11L0 13L2 13L2 10ZM14 10L14 11L11 11L11 13L10 13L10 12L9 12L9 13L7 13L7 14L9 14L9 13L10 13L10 14L12 14L12 16L11 16L11 17L12 17L12 16L14 16L14 15L15 15L15 16L16 16L16 15L15 15L15 14L14 14L14 13L13 13L13 14L12 14L12 12L15 12L15 10ZM13 14L13 15L14 15L14 14ZM17 14L17 15L18 15L18 14ZM17 17L17 20L20 20L20 17ZM18 18L18 19L19 19L19 18ZM12 24L12 25L13 25L13 24ZM0 0L0 7L7 7L7 0ZM1 1L1 6L6 6L6 1ZM2 2L2 5L5 5L5 2ZM18 0L18 7L25 7L25 0ZM19 1L19 6L24 6L24 1ZM20 2L20 5L23 5L23 2ZM0 18L0 25L7 25L7 18ZM1 19L1 24L6 24L6 19ZM2 20L2 23L5 23L5 20Z" fill="#000000"/></g></g></svg>
