<?xml version="1.0" encoding="UTF-8"?>
<svg xmlns="http://www.w3.org/2000/svg" version="1.1" width="100" height="100" viewBox="0 0 100 100"><rect x="0" y="0" width="100" height="100" fill="#ffffff"/><g transform="scale(4)"><g transform="translate(0,0)"><path fill-rule="evenodd" d="M8 0L8 1L10 1L10 0ZM13 0L13 2L11 2L11 4L10 4L10 3L9 3L9 2L8 2L8 5L9 5L9 6L8 6L8 7L9 7L9 8L8 8L8 9L7 9L7 8L6 8L6 9L4 9L4 8L0 8L0 12L2 12L2 13L1 13L1 15L0 15L0 16L1 16L1 15L5 15L5 14L6 14L6 15L8 15L8 16L6 16L6 17L8 17L8 18L9 18L9 17L10 17L10 20L11 20L11 21L10 21L10 22L11 22L11 23L10 23L10 24L9 24L9 21L8 21L8 25L11 25L11 23L14 23L14 22L15 22L15 23L16 23L16 22L17 22L17 21L18 21L18 23L19 23L19 24L23 24L23 25L25 25L25 24L23 24L23 23L24 23L24 22L25 22L25 21L23 21L23 20L25 20L25 17L24 17L24 16L25 16L25 15L24 15L24 14L25 14L25 12L24 12L24 11L22 11L22 10L24 10L24 9L25 9L25 8L24 8L24 9L23 9L23 8L20 8L20 9L18 9L18 8L17 8L17 4L16 4L16 3L17 3L17 2L15 2L15 1L14 1L14 0ZM16 0L16 1L17 1L17 0ZM14 2L14 3L12 3L12 5L10 5L10 6L9 6L9 7L10 7L10 8L9 8L9 9L10 9L10 10L8 10L8 11L4 11L4 9L3 9L3 11L2 11L2 12L4 12L4 13L5 13L5 12L7 12L7 13L6 13L6 14L8 14L8 12L10 12L10 13L9 13L9 16L8 16L8 17L9 17L9 16L12 16L12 17L11 17L11 18L12 18L12 17L14 17L14 18L13 18L13 20L14 20L14 21L15 21L15 22L16 22L16 20L15 20L15 19L16 19L16 18L15 18L15 17L16 17L16 12L12 12L12 14L10 14L10 13L11 13L11 11L14 11L14 10L15 10L15 11L18 11L18 12L17 12L17 15L18 15L18 12L19 12L19 11L20 11L20 12L21 12L21 13L24 13L24 12L21 12L21 11L20 11L20 10L21 10L21 9L20 9L20 10L19 10L19 11L18 11L18 9L17 9L17 8L15 8L15 9L13 9L13 7L14 7L14 5L13 5L13 4L15 4L15 7L16 7L16 4L15 4L15 2ZM12 5L12 7L11 7L11 6L10 6L10 7L11 7L11 8L12 8L12 7L13 7L13 5ZM1 9L1 10L2 10L2 9ZM6 9L6 10L7 10L7 9ZM2 13L2 14L3 14L3 13ZM13 13L13 14L12 14L12 16L14 16L14 15L15 15L15 14L14 14L14 13ZM13 14L13 15L14 15L14 14ZM20 14L20 16L21 16L21 19L22 19L22 20L21 20L21 23L23 23L23 22L22 22L22 20L23 20L23 19L22 19L22 18L23 18L23 16L24 16L24 15L23 15L23 14L22 14L22 15L21 15L21 14ZM2 16L2 17L4 17L4 16ZM17 17L17 20L20 20L20 17ZM18 18L18 19L19 19L19 18ZM11 19L11 20L12 20L12 19ZM11 21L11 22L12 22L12 21ZM19 21L19 22L20 22L20 21ZM12 24L12 25L13 25L13 24ZM14 24L14 25L15 25L15 24ZM0 0L0 7L7 7L7 0ZM1 1L1 6L6 6L6 1ZM2 2L2 5L5 5L5 2ZM18 0L18 7L25 7L25 0ZM19 1L19 6L24 6L24 1ZM20 2L20 5L23 5L23 2ZM0 18L0 25L7 25L7 18ZM1 19L1 24L6 24L6 19ZM2 20L2 23L5 23L5 20Z" fill="#000000"/></g></g></svg>
