<?xml version="1.0" encoding="UTF-8"?>
<svg xmlns="http://www.w3.org/2000/svg" version="1.1" width="100" height="100" viewBox="0 0 100 100"><rect x="0" y="0" width="100" height="100" fill="#ffffff"/><g transform="scale(4)"><g transform="translate(0,0)"><path fill-rule="evenodd" d="M10 0L10 1L8 1L8 3L9 3L9 4L8 4L8 8L6 8L6 9L4 9L4 8L3 8L3 9L2 9L2 8L0 8L0 10L1 10L1 9L2 9L2 10L3 10L3 11L5 11L5 10L6 10L6 11L7 11L7 12L6 12L6 13L5 13L5 14L6 14L6 15L7 15L7 14L9 14L9 13L8 13L8 12L10 12L10 13L11 13L11 16L12 16L12 18L10 18L10 15L8 15L8 16L5 16L5 15L4 15L4 16L3 16L3 17L8 17L8 19L10 19L10 20L9 20L9 21L8 21L8 22L9 22L9 23L8 23L8 25L9 25L9 23L10 23L10 22L9 22L9 21L10 21L10 20L11 20L11 19L12 19L12 20L13 20L13 18L14 18L14 20L15 20L15 19L16 19L16 22L15 22L15 21L14 21L14 22L15 22L15 23L14 23L14 24L15 24L15 25L18 25L18 24L19 24L19 22L18 22L18 24L16 24L16 23L17 23L17 21L20 21L20 23L22 23L22 22L23 22L23 21L25 21L25 16L24 16L24 15L25 15L25 12L24 12L24 11L25 11L25 9L24 9L24 8L22 8L22 9L21 9L21 8L18 8L18 9L16 9L16 8L17 8L17 6L16 6L16 5L17 5L17 4L16 4L16 3L17 3L17 2L16 2L16 1L17 1L17 0L15 0L15 1L14 1L14 3L12 3L12 7L11 7L11 4L10 4L10 3L9 3L9 2L11 2L11 0ZM15 2L15 3L14 3L14 4L13 4L13 7L12 7L12 8L13 8L13 9L14 9L14 10L15 10L15 11L14 11L14 12L12 12L12 16L14 16L14 17L15 17L15 18L16 18L16 17L15 17L15 15L16 15L16 16L18 16L18 15L17 15L17 14L18 14L18 13L16 13L16 14L15 14L15 15L13 15L13 13L14 13L14 12L15 12L15 11L16 11L16 12L20 12L20 13L19 13L19 15L21 15L21 17L24 17L24 16L23 16L23 15L24 15L24 14L23 14L23 13L24 13L24 12L23 12L23 10L24 10L24 9L23 9L23 10L22 10L22 11L21 11L21 9L19 9L19 11L16 11L16 9L14 9L14 8L15 8L15 7L16 7L16 6L15 6L15 5L16 5L16 4L15 4L15 3L16 3L16 2ZM14 4L14 5L15 5L15 4ZM9 5L9 8L8 8L8 9L6 9L6 10L8 10L8 11L11 11L11 8L10 8L10 5ZM14 6L14 7L13 7L13 8L14 8L14 7L15 7L15 6ZM3 9L3 10L4 10L4 9ZM8 9L8 10L10 10L10 9ZM1 11L1 12L0 12L0 13L3 13L3 14L2 14L2 15L1 15L1 14L0 14L0 15L1 15L1 16L0 16L0 17L2 17L2 15L3 15L3 14L4 14L4 13L3 13L3 12L2 12L2 11ZM20 11L20 12L21 12L21 13L23 13L23 12L21 12L21 11ZM6 13L6 14L7 14L7 13ZM21 14L21 15L22 15L22 14ZM17 17L17 20L20 20L20 17ZM18 18L18 19L19 19L19 18ZM22 18L22 19L21 19L21 22L22 22L22 19L23 19L23 18ZM11 21L11 22L12 22L12 21ZM24 22L24 23L25 23L25 22ZM12 24L12 25L13 25L13 24ZM20 24L20 25L21 25L21 24ZM23 24L23 25L25 25L25 24ZM0 0L0 7L7 7L7 0ZM1 1L1 6L6 6L6 1ZM2 2L2 5L5 5L5 2ZM18 0L18 7L25 7L25 0ZM19 1L19 6L24 6L24 1ZM20 2L20 5L23 5L23 2ZM0 18L0 25L7 25L7 18ZM1 19L1 24L6 24L6 19ZM2 20L2 23L5 23L5 20Z" fill="#000000"/></g></g></svg>
