<?xml version="1.0" encoding="UTF-8"?>
<svg xmlns="http://www.w3.org/2000/svg" version="1.1" width="100" height="100" viewBox="0 0 100 100"><rect x="0" y="0" width="100" height="100" fill="#ffffff"/><g transform="scale(4)"><g transform="translate(0,0)"><path fill-rule="evenodd" d="M9 0L9 1L8 1L8 2L9 2L9 3L8 3L8 4L10 4L10 7L11 7L11 4L12 4L12 5L13 5L13 6L12 6L12 9L13 9L13 8L14 8L14 9L15 9L15 8L16 8L16 10L15 10L15 11L14 11L14 12L15 12L15 13L12 13L12 11L13 11L13 10L11 10L11 11L10 11L10 9L11 9L11 8L6 8L6 9L5 9L5 8L0 8L0 9L2 9L2 10L0 10L0 11L3 11L3 13L4 13L4 14L5 14L5 15L4 15L4 17L7 17L7 16L6 16L6 15L9 15L9 14L11 14L11 13L12 13L12 14L13 14L13 15L12 15L12 17L13 17L13 16L14 16L14 17L16 17L16 18L15 18L15 19L14 19L14 20L15 20L15 21L12 21L12 19L13 19L13 18L11 18L11 17L10 17L10 16L11 16L11 15L10 15L10 16L9 16L9 17L8 17L8 19L9 19L9 17L10 17L10 18L11 18L11 19L10 19L10 20L8 20L8 25L10 25L10 23L9 23L9 21L12 21L12 22L13 22L13 23L12 23L12 25L13 25L13 24L14 24L14 25L15 25L15 24L16 24L16 23L17 23L17 22L19 22L19 23L18 23L18 24L17 24L17 25L18 25L18 24L21 24L21 25L25 25L25 20L24 20L24 21L22 21L22 20L21 20L21 18L22 18L22 19L25 19L25 18L24 18L24 17L25 17L25 14L23 14L23 13L22 13L22 15L24 15L24 17L22 17L22 16L20 16L20 15L19 15L19 14L20 14L20 13L21 13L21 12L20 12L20 11L21 11L21 10L23 10L23 12L24 12L24 13L25 13L25 10L24 10L24 8L23 8L23 9L22 9L22 8L21 8L21 10L20 10L20 11L19 11L19 10L18 10L18 8L16 8L16 7L17 7L17 6L16 6L16 5L17 5L17 4L16 4L16 3L17 3L17 0L16 0L16 1L14 1L14 2L15 2L15 4L16 4L16 5L14 5L14 4L12 4L12 2L13 2L13 1L11 1L11 2L10 2L10 0ZM10 3L10 4L11 4L11 3ZM8 5L8 7L9 7L9 5ZM13 6L13 7L14 7L14 8L15 8L15 7L16 7L16 6L15 6L15 7L14 7L14 6ZM19 8L19 9L20 9L20 8ZM4 9L4 10L3 10L3 11L4 11L4 10L5 10L5 9ZM6 9L6 10L7 10L7 11L5 11L5 12L4 12L4 13L5 13L5 14L7 14L7 13L9 13L9 11L8 11L8 10L9 10L9 9L8 9L8 10L7 10L7 9ZM17 11L17 12L16 12L16 13L15 13L15 14L16 14L16 16L19 16L19 15L17 15L17 14L19 14L19 13L20 13L20 12L19 12L19 11ZM6 12L6 13L7 13L7 12ZM10 12L10 13L11 13L11 12ZM17 12L17 13L16 13L16 14L17 14L17 13L19 13L19 12ZM0 13L0 17L1 17L1 13ZM14 15L14 16L15 16L15 15ZM2 16L2 17L3 17L3 16ZM17 17L17 20L20 20L20 17ZM18 18L18 19L19 19L19 18ZM15 19L15 20L16 20L16 19ZM15 21L15 23L14 23L14 24L15 24L15 23L16 23L16 21ZM21 21L21 22L20 22L20 23L21 23L21 24L24 24L24 22L22 22L22 21ZM0 0L0 7L7 7L7 0ZM1 1L1 6L6 6L6 1ZM2 2L2 5L5 5L5 2ZM18 0L18 7L25 7L25 0ZM19 1L19 6L24 6L24 1ZM20 2L20 5L23 5L23 2ZM0 18L0 25L7 25L7 18ZM1 19L1 24L6 24L6 19ZM2 20L2 23L5 23L5 20Z" fill="#000000"/></g></g></svg>
