<?xml version="1.0" encoding="UTF-8"?>
<svg xmlns="http://www.w3.org/2000/svg" version="1.1" width="100" height="100" viewBox="0 0 100 100"><rect x="0" y="0" width="100" height="100" fill="#ffffff"/><g transform="scale(4)"><g transform="translate(0,0)"><path fill-rule="evenodd" d="M10 0L10 1L9 1L9 2L8 2L8 3L9 3L9 5L10 5L10 7L11 7L11 8L12 8L12 9L11 9L11 10L10 10L10 9L9 9L9 6L8 6L8 8L4 8L4 9L5 9L5 11L4 11L4 10L3 10L3 11L2 11L2 9L3 9L3 8L0 8L0 9L1 9L1 10L0 10L0 11L1 11L1 12L0 12L0 13L1 13L1 14L0 14L0 15L1 15L1 16L0 16L0 17L1 17L1 16L2 16L2 17L3 17L3 16L5 16L5 17L8 17L8 21L9 21L9 22L8 22L8 25L9 25L9 23L10 23L10 24L12 24L12 25L13 25L13 24L12 24L12 23L11 23L11 22L12 22L12 20L14 20L14 22L13 22L13 23L14 23L14 22L15 22L15 20L16 20L16 21L19 21L19 22L18 22L18 23L23 23L23 24L22 24L22 25L25 25L25 24L24 24L24 23L25 23L25 22L24 22L24 23L23 23L23 20L24 20L24 21L25 21L25 16L24 16L24 15L25 15L25 12L24 12L24 13L23 13L23 12L20 12L20 13L22 13L22 14L19 14L19 11L20 11L20 10L19 10L19 8L15 8L15 9L16 9L16 10L17 10L17 11L18 11L18 12L17 12L17 13L15 13L15 10L14 10L14 9L13 9L13 8L12 8L12 7L13 7L13 5L14 5L14 7L15 7L15 6L16 6L16 7L17 7L17 6L16 6L16 5L15 5L15 4L14 4L14 3L12 3L12 2L11 2L11 3L12 3L12 5L10 5L10 3L9 3L9 2L10 2L10 1L11 1L11 0ZM13 0L13 2L14 2L14 1L15 1L15 2L16 2L16 3L17 3L17 1L15 1L15 0ZM11 6L11 7L12 7L12 6ZM22 8L22 9L21 9L21 11L25 11L25 9L24 9L24 10L23 10L23 8ZM6 9L6 10L7 10L7 11L6 11L6 12L5 12L5 16L7 16L7 15L8 15L8 14L7 14L7 13L6 13L6 12L7 12L7 11L8 11L8 13L10 13L10 12L9 12L9 11L10 11L10 10L8 10L8 9ZM13 10L13 11L14 11L14 10ZM18 10L18 11L19 11L19 10ZM3 11L3 13L2 13L2 12L1 12L1 13L2 13L2 14L1 14L1 15L4 15L4 14L3 14L3 13L4 13L4 11ZM11 11L11 12L12 12L12 14L10 14L10 15L9 15L9 16L8 16L8 17L9 17L9 20L10 20L10 15L12 15L12 16L11 16L11 17L12 17L12 16L13 16L13 17L14 17L14 18L13 18L13 19L14 19L14 18L16 18L16 16L15 16L15 15L17 15L17 14L14 14L14 12L12 12L12 11ZM6 14L6 15L7 15L7 14ZM13 14L13 15L14 15L14 14ZM22 14L22 15L21 15L21 17L22 17L22 16L23 16L23 18L22 18L22 19L21 19L21 22L22 22L22 20L23 20L23 18L24 18L24 16L23 16L23 14ZM18 15L18 16L20 16L20 15ZM17 17L17 20L20 20L20 17ZM18 18L18 19L19 19L19 18ZM11 19L11 20L12 20L12 19ZM10 21L10 22L11 22L11 21ZM16 22L16 25L18 25L18 24L17 24L17 22ZM19 24L19 25L21 25L21 24ZM0 0L0 7L7 7L7 0ZM1 1L1 6L6 6L6 1ZM2 2L2 5L5 5L5 2ZM18 0L18 7L25 7L25 0ZM19 1L19 6L24 6L24 1ZM20 2L20 5L23 5L23 2ZM0 18L0 25L7 25L7 18ZM1 19L1 24L6 24L6 19ZM2 20L2 23L5 23L5 20Z" fill="#000000"/></g></g></svg>
