<?xml version="1.0" encoding="UTF-8"?>
<svg xmlns="http://www.w3.org/2000/svg" version="1.1" width="100" height="100" viewBox="0 0 100 100"><rect x="0" y="0" width="100" height="100" fill="#ffffff"/><g transform="scale(4)"><g transform="translate(0,0)"><path fill-rule="evenodd" d="M10 0L10 1L9 1L9 2L8 2L8 3L9 3L9 5L10 5L10 7L11 7L11 8L12 8L12 9L11 9L11 10L10 10L10 9L9 9L9 6L8 6L8 8L4 8L4 9L5 9L5 10L3 10L3 8L0 8L0 11L1 11L1 12L3 12L3 13L2 13L2 15L1 15L1 14L0 14L0 15L1 15L1 16L0 16L0 17L1 17L1 16L2 16L2 17L3 17L3 16L2 16L2 15L3 15L3 13L4 13L4 14L6 14L6 15L7 15L7 14L6 14L6 13L7 13L7 12L5 12L5 10L6 10L6 11L8 11L8 12L10 12L10 13L8 13L8 16L9 16L9 17L8 17L8 21L9 21L9 19L10 19L10 18L9 18L9 17L10 17L10 16L12 16L12 17L11 17L11 19L12 19L12 20L10 20L10 21L11 21L11 22L8 22L8 25L9 25L9 24L10 24L10 25L11 25L11 24L12 24L12 25L13 25L13 24L12 24L12 23L11 23L11 22L12 22L12 20L14 20L14 22L13 22L13 23L14 23L14 22L16 22L16 23L17 23L17 22L16 22L16 21L19 21L19 23L18 23L18 24L15 24L15 25L18 25L18 24L19 24L19 25L21 25L21 23L23 23L23 24L22 24L22 25L25 25L25 24L24 24L24 23L25 23L25 22L24 22L24 23L23 23L23 20L24 20L24 21L25 21L25 16L24 16L24 15L25 15L25 12L24 12L24 13L23 13L23 12L21 12L21 11L25 11L25 9L24 9L24 10L23 10L23 8L22 8L22 9L21 9L21 10L20 10L20 12L21 12L21 13L22 13L22 14L21 14L21 15L22 15L22 14L23 14L23 16L22 16L22 17L21 17L21 16L19 16L19 14L17 14L17 13L19 13L19 10L17 10L17 9L19 9L19 8L16 8L16 12L17 12L17 13L16 13L16 18L14 18L14 17L13 17L13 16L12 16L12 15L11 15L11 14L12 14L12 12L14 12L14 14L13 14L13 15L14 15L14 14L15 14L15 10L14 10L14 9L13 9L13 8L12 8L12 7L13 7L13 5L14 5L14 7L15 7L15 6L16 6L16 7L17 7L17 6L16 6L16 5L17 5L17 1L15 1L15 0L13 0L13 1L15 1L15 2L14 2L14 3L12 3L12 2L11 2L11 3L12 3L12 5L10 5L10 3L9 3L9 2L10 2L10 1L11 1L11 0ZM15 2L15 3L14 3L14 4L16 4L16 2ZM11 6L11 7L12 7L12 6ZM1 9L1 10L2 10L2 9ZM6 9L6 10L8 10L8 9ZM9 10L9 11L10 11L10 10ZM13 10L13 11L14 11L14 10ZM3 11L3 12L4 12L4 13L5 13L5 12L4 12L4 11ZM11 11L11 12L12 12L12 11ZM17 11L17 12L18 12L18 11ZM17 15L17 16L18 16L18 15ZM4 16L4 17L5 17L5 16ZM6 16L6 17L7 17L7 16ZM23 16L23 18L22 18L22 19L21 19L21 21L20 21L20 22L22 22L22 20L23 20L23 18L24 18L24 16ZM17 17L17 20L20 20L20 17ZM13 18L13 19L14 19L14 18ZM18 18L18 19L19 19L19 18ZM15 19L15 21L16 21L16 19ZM10 23L10 24L11 24L11 23ZM0 0L0 7L7 7L7 0ZM1 1L1 6L6 6L6 1ZM2 2L2 5L5 5L5 2ZM18 0L18 7L25 7L25 0ZM19 1L19 6L24 6L24 1ZM20 2L20 5L23 5L23 2ZM0 18L0 25L7 25L7 18ZM1 19L1 24L6 24L6 19ZM2 20L2 23L5 23L5 20Z" fill="#000000"/></g></g></svg>
