<?xml version="1.0" encoding="UTF-8"?>
<svg xmlns="http://www.w3.org/2000/svg" version="1.1" width="100" height="100" viewBox="0 0 100 100"><rect x="0" y="0" width="100" height="100" fill="#ffffff"/><g transform="scale(4)"><g transform="translate(0,0)"><path fill-rule="evenodd" d="M10 0L10 1L9 1L9 2L8 2L8 3L9 3L9 5L10 5L10 7L11 7L11 8L12 8L12 9L11 9L11 10L10 10L10 9L9 9L9 6L8 6L8 8L4 8L4 11L3 11L3 10L0 10L0 13L1 13L1 14L0 14L0 15L1 15L1 16L0 16L0 17L1 17L1 16L2 16L2 17L4 17L4 16L5 16L5 15L4 15L4 14L3 14L3 13L4 13L4 11L7 11L7 12L6 12L6 13L5 13L5 14L6 14L6 15L7 15L7 16L6 16L6 17L8 17L8 21L9 21L9 22L8 22L8 25L9 25L9 22L10 22L10 24L12 24L12 25L13 25L13 24L12 24L12 23L11 23L11 22L12 22L12 20L14 20L14 22L13 22L13 23L14 23L14 22L15 22L15 20L16 20L16 23L15 23L15 25L17 25L17 24L18 24L18 25L21 25L21 24L19 24L19 23L23 23L23 24L22 24L22 25L25 25L25 24L24 24L24 23L25 23L25 22L24 22L24 23L23 23L23 20L24 20L24 21L25 21L25 16L24 16L24 15L25 15L25 12L24 12L24 13L23 13L23 12L21 12L21 11L25 11L25 9L24 9L24 10L23 10L23 8L22 8L22 9L21 9L21 10L20 10L20 11L19 11L19 8L17 8L17 10L16 10L16 11L15 11L15 10L14 10L14 9L13 9L13 8L12 8L12 7L13 7L13 5L14 5L14 7L15 7L15 6L16 6L16 7L17 7L17 6L16 6L16 5L15 5L15 4L17 4L17 1L15 1L15 0L14 0L14 2L15 2L15 4L14 4L14 3L12 3L12 2L11 2L11 3L12 3L12 5L10 5L10 3L9 3L9 2L10 2L10 1L11 1L11 0ZM11 6L11 7L12 7L12 6ZM0 8L0 9L3 9L3 8ZM5 9L5 10L7 10L7 11L8 11L8 12L9 12L9 15L8 15L8 16L10 16L10 15L12 15L12 16L11 16L11 17L10 17L10 18L9 18L9 21L10 21L10 22L11 22L11 20L12 20L12 19L10 19L10 18L11 18L11 17L12 17L12 16L13 16L13 17L14 17L14 18L13 18L13 19L14 19L14 18L16 18L16 17L15 17L15 15L16 15L16 16L17 16L17 15L18 15L18 13L17 13L17 15L16 15L16 13L15 13L15 14L14 14L14 12L12 12L12 11L11 11L11 12L12 12L12 14L10 14L10 12L9 12L9 11L10 11L10 10L9 10L9 9ZM13 10L13 11L14 11L14 10ZM16 11L16 12L19 12L19 11ZM1 12L1 13L3 13L3 12ZM6 13L6 14L8 14L8 13ZM19 13L19 14L22 14L22 15L20 15L20 16L21 16L21 17L22 17L22 16L23 16L23 18L22 18L22 19L21 19L21 22L22 22L22 20L23 20L23 18L24 18L24 16L23 16L23 14L22 14L22 13ZM1 14L1 15L3 15L3 14ZM13 14L13 15L14 15L14 14ZM17 17L17 20L20 20L20 17ZM18 18L18 19L19 19L19 18ZM17 21L17 23L16 23L16 24L17 24L17 23L19 23L19 21ZM0 0L0 7L7 7L7 0ZM1 1L1 6L6 6L6 1ZM2 2L2 5L5 5L5 2ZM18 0L18 7L25 7L25 0ZM19 1L19 6L24 6L24 1ZM20 2L20 5L23 5L23 2ZM0 18L0 25L7 25L7 18ZM1 19L1 24L6 24L6 19ZM2 20L2 23L5 23L5 20Z" fill="#000000"/></g></g></svg>
