<?xml version="1.0" encoding="UTF-8"?>
<svg xmlns="http://www.w3.org/2000/svg" version="1.1" width="100" height="100" viewBox="0 0 100 100"><rect x="0" y="0" width="100" height="100" fill="#ffffff"/><g transform="scale(4)"><g transform="translate(0,0)"><path fill-rule="evenodd" d="M10 0L10 1L8 1L8 3L9 3L9 4L8 4L8 8L6 8L6 9L5 9L5 10L6 10L6 11L5 11L5 12L6 12L6 13L7 13L7 12L6 12L6 11L8 11L8 13L9 13L9 14L10 14L10 13L11 13L11 16L12 16L12 18L9 18L9 16L10 16L10 15L8 15L8 14L6 14L6 15L4 15L4 12L1 12L1 11L0 11L0 12L1 12L1 14L0 14L0 15L1 15L1 16L0 16L0 17L2 17L2 16L4 16L4 17L5 17L5 16L6 16L6 17L7 17L7 16L8 16L8 19L10 19L10 21L8 21L8 22L10 22L10 23L11 23L11 22L12 22L12 21L11 21L11 19L12 19L12 20L13 20L13 18L14 18L14 20L15 20L15 17L14 17L14 16L12 16L12 12L14 12L14 13L13 13L13 15L15 15L15 16L16 16L16 21L14 21L14 22L15 22L15 23L14 23L14 24L15 24L15 25L18 25L18 21L20 21L20 22L19 22L19 25L21 25L21 24L20 24L20 23L22 23L22 22L23 22L23 21L25 21L25 16L24 16L24 15L25 15L25 12L24 12L24 11L25 11L25 9L24 9L24 8L22 8L22 9L21 9L21 8L18 8L18 9L17 9L17 8L14 8L14 7L15 7L15 6L16 6L16 7L17 7L17 1L16 1L16 0L14 0L14 2L15 2L15 3L16 3L16 4L14 4L14 3L12 3L12 7L11 7L11 4L10 4L10 3L9 3L9 2L11 2L11 0ZM13 4L13 7L12 7L12 8L13 8L13 9L14 9L14 10L15 10L15 11L14 11L14 12L15 12L15 11L16 11L16 12L19 12L19 13L20 13L20 15L21 15L21 17L24 17L24 16L23 16L23 15L24 15L24 14L23 14L23 13L24 13L24 12L23 12L23 10L24 10L24 9L23 9L23 10L22 10L22 11L21 11L21 9L19 9L19 10L17 10L17 11L16 11L16 10L15 10L15 9L14 9L14 8L13 8L13 7L14 7L14 6L15 6L15 5L14 5L14 4ZM9 5L9 8L8 8L8 9L6 9L6 10L9 10L9 11L11 11L11 8L10 8L10 5ZM0 8L0 9L1 9L1 10L2 10L2 11L4 11L4 8L3 8L3 9L2 9L2 8ZM9 9L9 10L10 10L10 9ZM19 10L19 11L20 11L20 10ZM9 12L9 13L10 13L10 12ZM20 12L20 13L23 13L23 12ZM15 13L15 15L17 15L17 16L18 16L18 15L19 15L19 14L17 14L17 13ZM1 14L1 15L3 15L3 14ZM21 14L21 15L22 15L22 14ZM6 15L6 16L7 16L7 15ZM17 17L17 20L20 20L20 17ZM18 18L18 19L19 19L19 18ZM22 18L22 19L21 19L21 22L22 22L22 19L23 19L23 18ZM10 21L10 22L11 22L11 21ZM16 21L16 23L17 23L17 21ZM24 22L24 23L25 23L25 22ZM8 23L8 25L11 25L11 24L9 24L9 23ZM12 24L12 25L13 25L13 24ZM22 24L22 25L25 25L25 24ZM0 0L0 7L7 7L7 0ZM1 1L1 6L6 6L6 1ZM2 2L2 5L5 5L5 2ZM18 0L18 7L25 7L25 0ZM19 1L19 6L24 6L24 1ZM20 2L20 5L23 5L23 2ZM0 18L0 25L7 25L7 18ZM1 19L1 24L6 24L6 19ZM2 20L2 23L5 23L5 20Z" fill="#000000"/></g></g></svg>
