<?xml version="1.0" encoding="UTF-8"?>
<svg xmlns="http://www.w3.org/2000/svg" version="1.1" width="100" height="100" viewBox="0 0 100 100"><rect x="0" y="0" width="100" height="100" fill="#ffffff"/><g transform="scale(4)"><g transform="translate(0,0)"><path fill-rule="evenodd" d="M8 0L8 4L9 4L9 5L8 5L8 7L9 7L9 6L10 6L10 9L11 9L11 8L12 8L12 9L13 9L13 10L15 10L15 11L14 11L14 12L13 12L13 11L12 11L12 12L11 12L11 13L9 13L9 12L10 12L10 11L11 11L11 10L8 10L8 9L7 9L7 8L4 8L4 9L7 9L7 10L6 10L6 11L5 11L5 12L6 12L6 13L5 13L5 14L6 14L6 15L4 15L4 14L3 14L3 13L4 13L4 12L3 12L3 13L2 13L2 12L1 12L1 11L2 11L2 10L3 10L3 11L4 11L4 10L3 10L3 9L2 9L2 8L0 8L0 9L1 9L1 11L0 11L0 12L1 12L1 13L0 13L0 14L2 14L2 16L0 16L0 17L2 17L2 16L3 16L3 15L4 15L4 17L5 17L5 16L6 16L6 17L7 17L7 16L10 16L10 18L9 18L9 17L8 17L8 18L9 18L9 19L8 19L8 21L12 21L12 22L9 22L9 23L8 23L8 25L9 25L9 23L10 23L10 24L12 24L12 25L14 25L14 23L15 23L15 25L16 25L16 24L17 24L17 25L18 25L18 24L17 24L17 21L18 21L18 23L19 23L19 24L20 24L20 25L21 25L21 24L20 24L20 21L21 21L21 22L22 22L22 24L23 24L23 25L25 25L25 24L24 24L24 22L25 22L25 19L22 19L22 20L24 20L24 21L21 21L21 16L19 16L19 14L18 14L18 15L17 15L17 13L20 13L20 15L21 15L21 14L23 14L23 13L22 13L22 12L23 12L23 10L24 10L24 9L25 9L25 8L21 8L21 9L20 9L20 8L19 8L19 9L18 9L18 10L19 10L19 11L18 11L18 12L17 12L17 13L15 13L15 11L17 11L17 10L16 10L16 9L17 9L17 6L16 6L16 7L15 7L15 6L14 6L14 7L13 7L13 6L12 6L12 7L11 7L11 3L10 3L10 2L9 2L9 0ZM14 0L14 1L16 1L16 2L14 2L14 3L15 3L15 4L14 4L14 5L17 5L17 4L16 4L16 3L17 3L17 0ZM11 1L11 2L12 2L12 5L13 5L13 1ZM12 7L12 8L13 8L13 7ZM14 7L14 9L16 9L16 8L15 8L15 7ZM19 9L19 10L20 10L20 11L21 11L21 12L22 12L22 9L21 9L21 10L20 10L20 9ZM6 11L6 12L7 12L7 11ZM12 12L12 13L11 13L11 14L9 14L9 15L11 15L11 14L12 14L12 13L13 13L13 14L15 14L15 13L13 13L13 12ZM24 12L24 13L25 13L25 12ZM6 13L6 14L8 14L8 13ZM6 15L6 16L7 16L7 15ZM12 15L12 16L11 16L11 20L12 20L12 21L13 21L13 22L16 22L16 19L15 19L15 18L16 18L16 17L15 17L15 16L17 16L17 15L14 15L14 17L15 17L15 18L13 18L13 17L12 17L12 16L13 16L13 15ZM22 15L22 16L24 16L24 17L22 17L22 18L24 18L24 17L25 17L25 16L24 16L24 15ZM17 17L17 20L20 20L20 17ZM18 18L18 19L19 19L19 18ZM9 19L9 20L10 20L10 19ZM12 19L12 20L13 20L13 21L15 21L15 19L14 19L14 20L13 20L13 19ZM12 23L12 24L13 24L13 23ZM0 0L0 7L7 7L7 0ZM1 1L1 6L6 6L6 1ZM2 2L2 5L5 5L5 2ZM18 0L18 7L25 7L25 0ZM19 1L19 6L24 6L24 1ZM20 2L20 5L23 5L23 2ZM0 18L0 25L7 25L7 18ZM1 19L1 24L6 24L6 19ZM2 20L2 23L5 23L5 20Z" fill="#000000"/></g></g></svg>
